<svg width="1600" height="900" viewBox="0 0 1600 900" xmlns="http://www.w3.org/2000/svg">
  <defs>
    <linearGradient id="bg" x1="0" y1="0" x2="1" y2="1">
      <stop offset="0%" stop-color="#0f1d3a"/>
      <stop offset="100%" stop-color="#123b62"/>
    </linearGradient>
  </defs>
  <rect width="1600" height="900" fill="url(#bg)"/>
  <rect x="80" y="70" width="1440" height="760" rx="28" fill="#0a1428" stroke="#35548b" stroke-width="2"/>
  <text x="130" y="150" fill="#8dc2ff" font-size="28" font-family="Arial, Helvetica, sans-serif">Slack to Jira Triage Bot</text>
  <rect x="130" y="210" width="320" height="120" rx="18" fill="#15294c" stroke="#35548b"/>
  <text x="160" y="280" fill="#f1f7ff" font-size="32" font-family="Arial, Helvetica, sans-serif">Slack Intake</text>
  <rect x="560" y="210" width="320" height="120" rx="18" fill="#193459" stroke="#3c6cb5"/>
  <text x="610" y="280" fill="#f1f7ff" font-size="32" font-family="Arial, Helvetica, sans-serif">Rules Engine</text>
  <rect x="990" y="210" width="320" height="120" rx="18" fill="#1e3f63" stroke="#4f85cc"/>
  <text x="1080" y="280" fill="#f1f7ff" font-size="32" font-family="Arial, Helvetica, sans-serif">Jira Create</text>
  <rect x="280" y="560" width="440" height="170" rx="18" fill="#132342" stroke="#335689"/>
  <text x="320" y="630" fill="#f7fbff" font-size="40" font-family="Arial, Helvetica, sans-serif">2.4x Faster</text>
  <text x="320" y="670" fill="#9cc8ff" font-size="24" font-family="Arial, Helvetica, sans-serif">Report-to-ticket throughput</text>
  <rect x="820" y="560" width="440" height="170" rx="18" fill="#132342" stroke="#335689"/>
  <text x="860" y="630" fill="#f7fbff" font-size="40" font-family="Arial, Helvetica, sans-serif">90% Required</text>
  <text x="860" y="670" fill="#9cc8ff" font-size="24" font-family="Arial, Helvetica, sans-serif">Structured intake fields</text>
  <path d="M450 270H540" stroke="#8cc0ff" stroke-width="6" stroke-linecap="round"/>
  <polygon points="540,270 520,258 520,282" fill="#8cc0ff"/>
  <path d="M880 270H970" stroke="#8cc0ff" stroke-width="6" stroke-linecap="round"/>
  <polygon points="970,270 950,258 950,282" fill="#8cc0ff"/>
</svg>
