<svg width="1600" height="900" viewBox="0 0 1600 900" xmlns="http://www.w3.org/2000/svg">
  <rect width="1600" height="900" fill="#0f1524"/>
  <rect x="90" y="90" width="1420" height="720" rx="24" fill="#111b2f" stroke="#314d82"/>
  <text x="140" y="170" fill="#8bb6ff" font-size="34" font-family="Arial, Helvetica, sans-serif">Routing Decision Flow</text>
  <rect x="160" y="250" width="320" height="110" rx="14" fill="#1b2f52" stroke="#507ec9"/>
  <text x="205" y="315" fill="#f3f8ff" font-size="30" font-family="Arial, Helvetica, sans-serif">Capture Payload</text>
  <rect x="640" y="250" width="320" height="110" rx="14" fill="#1b2f52" stroke="#507ec9"/>
  <text x="685" y="315" fill="#f3f8ff" font-size="30" font-family="Arial, Helvetica, sans-serif">Score &amp; Classify</text>
  <rect x="1120" y="250" width="320" height="110" rx="14" fill="#1b2f52" stroke="#507ec9"/>
  <text x="1175" y="315" fill="#f3f8ff" font-size="30" font-family="Arial, Helvetica, sans-serif">Assign Owner</text>
  <path d="M480 305H620" stroke="#8cc0ff" stroke-width="5" stroke-linecap="round"/>
  <polygon points="620,305 603,294 603,316" fill="#8cc0ff"/>
  <path d="M960 305H1100" stroke="#8cc0ff" stroke-width="5" stroke-linecap="round"/>
  <polygon points="1100,305 1083,294 1083,316" fill="#8cc0ff"/>
  <rect x="160" y="460" width="1280" height="280" rx="18" fill="#0d1628" stroke="#2f4d84"/>
  <text x="210" y="540" fill="#d5e8ff" font-size="34" font-family="Arial, Helvetica, sans-serif">Observed Result</text>
  <text x="210" y="602" fill="#9bc0ff" font-size="28" font-family="Arial, Helvetica, sans-serif">Deterministic triage replaced inbox chaos and reduced manual escalation loops.</text>
  <text x="210" y="650" fill="#9bc0ff" font-size="28" font-family="Arial, Helvetica, sans-serif">Engineering intake quality improved with consistent context packaging.</text>
</svg>
